# xmcd
#
# Track frame offsets:
#	150
#	24459
#	40877
#	62436
#	88526
#	99953
#	122364
#	142684
#	166294
#	168170
#	193024
#	220710
#	244608
#	267127
#	320242
#
# Disc length: 4436 seconds
#
# Revision: 0
# Processed by: cddbd v1.5.1PL0 Copyright (c) Steve Scherf et al.
# Submitted via: dBpowerAMP V4.0
#
DISCID=ba11520f
DTITLE=Michael Powers - Blues That You Can Use
DYEAR=1
DGENRE=Blues
TTITLE0=Chop BBQ Special
TTITLE1=Easy Mover
TTITLE2=Rough Jazz
TTITLE3=Jaeda
TTITLE4=The Swamp Club - Intro.
TTITLE5=The Swamp Club
TTITLE6=Organ Donor
TTITLE7=Take It Slow
TTITLE8=Press Any Key - Intro.
TTITLE9=Press Any Key To Continue
TTITLE10=Diane's Waltz
TTITLE11=The Blue Panther
TTITLE12=The Thrill Is Back
TTITLE13=Blues That You Can Use
TTITLE14=DATA
EXTD=
EXTT0=
EXTT1=
EXTT2=
EXTT3=
EXTT4=
EXTT5=
EXTT6=
EXTT7=
EXTT8=
EXTT9=
EXTT10=
EXTT11=
EXTT12=
EXTT13=
EXTT14=
PLAYORDER=
